<?xml version="1.0" encoding="UTF-8" standalone="no"?>
<!-- Created with Inkscape (http://www.inkscape.org/) -->

<svg
   width="120"
   height="120"
   viewBox="0 0 120 120"
   version="1.1"
   id="svg5"
   inkscape:version="1.2.1 (9c6d41e410, 2022-07-14, custom)"
   sodipodi:docname="conduct-logo.svg"
   inkscape:export-filename="../Pictures/conduct-logo.svg"
   inkscape:export-xdpi="96"
   inkscape:export-ydpi="96"
   xmlns:inkscape="http://www.inkscape.org/namespaces/inkscape"
   xmlns:sodipodi="http://sodipodi.sourceforge.net/DTD/sodipodi-0.dtd"
   xmlns="http://www.w3.org/2000/svg"
   xmlns:svg="http://www.w3.org/2000/svg">
  <sodipodi:namedview
     id="namedview7"
     pagecolor="#505050"
     bordercolor="#ffffff"
     borderopacity="1"
     inkscape:showpageshadow="0"
     inkscape:pageopacity="0"
     inkscape:pagecheckerboard="1"
     inkscape:deskcolor="#505050"
     inkscape:document-units="px"
     showgrid="false"
     inkscape:zoom="2.4365721"
     inkscape:cx="-161.29217"
     inkscape:cy="60.330658"
     inkscape:window-width="1920"
     inkscape:window-height="1007"
     inkscape:window-x="0"
     inkscape:window-y="0"
     inkscape:window-maximized="1"
     inkscape:current-layer="layer1" />
  <defs
     id="defs2">
    <clipPath
       clipPathUnits="userSpaceOnUse"
       id="clipPath743">
      <path
         style="fill:#000000"
         d="m 95.517596,5.4537866 c -1.375337,1.9559303 -3.567327,2.8773826 -5.507769,4.0038476 -1.59671,0.9269228 -3.218634,1.7991698 -4.828516,2.6975048 -2.377671,1.326771 -1.375176,0.655664 -4.546466,3.234344 -2.439262,1.983445 -2.42037,1.965239 0.541083,2.421554 1.501326,0.231333 3.005708,0.439179 4.504229,0.691977 0.332011,0.056 1.817009,0.171972 1.936447,0.583722 0.296794,1.02317 -0.295359,2.494505 -0.550524,3.337361 -0.587428,1.940374 -1.82071,6.0428 -2.434722,7.673219 -2.092974,5.557594 -4.716399,10.848624 -6.931727,16.346448 -1.122329,2.785309 -2.27878,5.571796 -3.185275,8.432145 -0.08168,0.257732 0.04974,0.55216 0,0.819765 -0.19645,1.05697 -0.941306,1.688294 -1.101049,2.753639 -0.545545,3.638305 -0.527495,7.757456 0.825787,11.267259 0.683216,1.771954 1.513108,3.899597 2.477362,5.507279 0.185603,0.309455 0.697743,0.850018 0.801862,1.197211 0.097,0.323447 0.05841,0.963173 0.275263,1.223839 0.103782,0.124752 0.366907,-0.135957 0.458591,0 0.337426,0.500364 -0.540712,0.153159 0.271869,0.604787 0.209281,0.116317 0.694144,-0.0215 0.862211,0.186575 0.23516,0.291135 0.184464,0.452875 0.751394,0.773583 0.128,0.07241 0.351154,-0.132794 0.43087,0 0.04675,0.07788 -0.06064,0.215895 0,0.280881 0.297243,0.318552 1.799114,-0.0054 2.022433,0.305959 0.05291,0.07376 -0.06195,0.218529 0,0.28301 0.433711,0.451428 4.241123,-0.457593 4.807817,0 0.276859,0.223557 -0.11834,3.301646 0,4.353953 0.321588,2.859612 1.116679,5.180687 1.652449,7.959777 0.0769,0.398891 -0.08902,0.828074 0,1.22384 0.3423,1.521897 1.027091,2.895187 1.651574,4.28344 0.353997,0.786951 0.85013,1.614477 1.101049,2.447674 0.02876,0.0955 -0.0809,0.25678 0,0.30212 0.07606,0.0426 0.111536,-0.14559 0.180709,-0.20084 0.258112,-0.20619 0.542974,-0.36939 0.797696,-0.580719 0.642364,-0.532934 4.506342,-3.868648 5.253576,-2.803333 1.039575,1.482117 1.292656,4.022912 1.701634,5.729332 1.100977,4.59369 2.480067,9.09813 3.183837,13.79164 0.004,0.023 0.78927,2.96154 0.55053,3.3202 -1.29021,1.93822 -5.134991,3.17025 -6.971484,3.8846 -3.890794,1.51339 -7.632305,3.25926 -11.778624,3.82201 -1.454541,0.19741 -2.930688,0 -4.396033,0 -3.510637,0 -7.021274,0 -10.531911,0 -2.933052,0 -5.93424,0.1832 -8.861957,0 -1.648597,-0.10322 -3.273771,-0.48506 -4.915242,-0.68408 -4.013118,-0.48656 -8.001679,-0.9554 -12.008927,-1.51839 -2.402921,-0.33759 -4.79128,-0.48719 -7.186744,-0.72647 -1.935051,-0.19329 -0.867649,-0.34644 -2.756774,-0.91929 -2.4657,-0.74772 -4.952031,-1.3122 -7.395661,-2.21758 -2.759131,-1.02228 -5.980763,-1.99295 -8.307921,-4.00482 -0.409704,-0.35419 -0.70461,-0.85146 -1.101049,-1.22384 -2.410525,-2.26424 -5.284628,-4.04215 -6.649693,-7.3825 -0.293714,-0.71872 -0.9642708,-3.43003 -1.1251255,-4.07664 -0.7428445,-2.98613 -1.6473064,-6.012153 -1.8226894,-9.128264 -0.2422985,-4.305034 0.2139673,-8.656972 0,-12.964139 C 7.6308876,82.141384 6.9971599,75.717129 6.968789,75.087249 6.7271572,69.722628 6.8805836,63.712993 7.3134046,58.468473 7.9111587,55.469624 8.1515777,54.835381 8.3185054,51.80023 8.6899433,45.046591 7.4190896,38.446205 10.520605,32.243434 c 0.751295,-1.502528 2.078984,-3.750152 3.092031,-4.999188 0.407301,-0.502182 0.957702,-0.834118 1.427453,-1.263673 1.675444,-1.532074 3.272654,-3.176907 5.029016,-4.592592 0.553491,-0.446133 1.172175,-0.790691 1.70663,-1.264634 0.407863,-0.361684 0.698954,-0.868574 1.106812,-1.230263 2.032122,-1.802089 4.615161,-3.570664 7.029759,-4.690438 0.542925,-0.251782 1.138633,-0.349999 1.674289,-0.620332 0.489228,-0.246902 0.892778,-0.675211 1.382007,-0.92211 0.0361,-0.01822 3.275255,-1.208705 3.325981,-1.232289 0.575749,-0.26769 1.084576,-0.703256 1.673163,-0.933884 2.560122,-1.0031421 5.613706,-1.6222707 8.282905,-2.1190402 6.432117,-1.1970931 -0.477073,0.5615559 6.373625,-1.0708412 2.412493,-0.5748533 4.532393,-2.0413944 6.882921,-2.7539384 4.232934,-0.7841661 -0.447878,0.2679305 2.752607,-0.9178798 1.475144,-0.5465549 1.427381,-0.1640649 3.027886,-0.3059599 5.120098,-0.4539296 -1.523099,-0.3225428 4.43995,-0.3225428 4.643575,0 9.287149,0 13.930723,0 1.968157,0 4.105108,0.2710257 6.055773,0 0.928382,-0.1289895 1.85613,-0.7755267 2.752624,-0.9178799 0.389334,-0.061822 4.015213,-0.525918 4.361495,-0.3059599 0.691415,0.4391858 1.15626,2.9114612 0.792782,3.8272913 -0.17242,0.4344504 -1.644296,-0.030174 -2.103441,-0.1534936 z"
         id="path745" />
    </clipPath>
  </defs>
  <g
     inkscape:label="Layer 1"
     inkscape:groupmode="layer"
     id="layer1">
    <path
       style="fill:#945bff;fill-opacity:1;stroke-width:1.17114"
       d="M 100.485,105.88474 C 39.35084,55.890994 -29.34079,70.969835 40.998553,55.462653 111.3379,39.955468 126.98255,-12.814503 112.35114,43.971402 99.923274,92.205137 109.07922,107.77164 100.485,105.88474 Z"
       id="path956"
       sodipodi:nodetypes="cssc" />
    <path
       style="fill:#7c00ef;stroke-width:1.17114;fill-opacity:1"
       d="M 116.31004,17.954278 C 14.794045,64.927009 8.936811,16.558723 8.5888405,20.026684 1.3925525,91.746754 14.294011,68.370211 56.754192,56.916993 89.609308,48.054648 116.31004,17.954278 116.31004,17.954278 Z"
       id="path1025"
       sodipodi:nodetypes="cssc" />
  </g>
  <g
     inkscape:groupmode="layer"
     id="layer4"
     inkscape:label="Layer 2">
    <path
       style="fill:#fffb9e;fill-opacity:1;stroke-width:0.891805"
       d="M 53.894596,74.693651 C 63.686139,74.253114 119.01574,0.40354663 63.813868,74.253114 8.6119911,148.10269 64.911875,8.0622851 64.911875,8.0622851 Z"
       id="path2053" />
  </g>
</svg>
